{
  "accessors": [
    {
      "name": "WBZQJ_1_0_positions",
      "componentType": 5126,
      "count": 50,
      "min": [
        0.07639999687671661,
        0.009800000116229057,
        -0.08250000327825546
      ],
      "max": [
        0.1501999944448471,
        0.15479999780654907,
        0.08250000327825546
      ],
      "type": "VEC3",
      "bufferView": 0,
      "byteOffset": 0
    },
    {
      "name": "WBZQJ_1_0_normals",
      "componentType": 5126,
      "count": 50,
      "min": [
        0,
        -1,
        -1
      ],
      "max": [
        0,
        0.09950371831655502,
        1
      ],
      "type": "VEC3",
      "bufferView": 1,
      "byteOffset": 0
    },
    {
      "name": "WBZQJ_1_0_texcoords",
      "componentType": 5126,
      "count": 50,
      "min": [
        -2.222100019454956,
        -0.6491000056266785
      ],
      "max": [
        3.222100019454956,
        3.222100019454956
      ],
      "type": "VEC2",
      "bufferView": 2,
      "byteOffset": 0
    },
    {
      "name": "WBZQJ_1_0_indices",
      "componentType": 5123,
      "count": 78,
      "min": [
        0
      ],
      "max": [
        49
      ],
      "type": "SCALAR",
      "bufferView": 3,
      "byteOffset": 0
    },
    {
      "name": "WBZQJ_1_1_positions",
      "componentType": 5126,
      "count": 21,
      "min": [
        0.1501999944448471,
        0.009800000116229057,
        -0.08250000327825546
      ],
      "max": [
        0.1501999944448471,
        0.1729000061750412,
        0.08250000327825546
      ],
      "type": "VEC3",
      "bufferView": 0,
      "byteOffset": 600
    },
    {
      "name": "WBZQJ_1_1_normals",
      "componentType": 5126,
      "count": 21,
      "min": [
        1,
        0,
        0
      ],
      "max": [
        1,
        0,
        0
      ],
      "type": "VEC3",
      "bufferView": 1,
      "byteOffset": 600
    },
    {
      "name": "WBZQJ_1_1_texcoords",
      "componentType": 5126,
      "count": 21,
      "min": [
        0.0005000000237487257,
        0.012199999764561653
      ],
      "max": [
        0.9994999766349792,
        0.9994999766349792
      ],
      "type": "VEC2",
      "bufferView": 2,
      "byteOffset": 400
    },
    {
      "name": "WBZQJ_1_1_indices",
      "componentType": 5123,
      "count": 57,
      "min": [
        0
      ],
      "max": [
        20
      ],
      "type": "SCALAR",
      "bufferView": 3,
      "byteOffset": 156
    },
    {
      "name": "WBZQJ_1_2_positions",
      "componentType": 5126,
      "count": 329,
      "min": [
        -0.20010000467300415,
        0,
        -0.0925000011920929
      ],
      "max": [
        0.20010000467300415,
        0.18289999663829803,
        0.0925000011920929
      ],
      "type": "VEC3",
      "bufferView": 0,
      "byteOffset": 852
    },
    {
      "name": "WBZQJ_1_2_normals",
      "componentType": 5126,
      "count": 329,
      "min": [
        -1,
        -1,
        -1
      ],
      "max": [
        1,
        0.9987239837646484,
        1
      ],
      "type": "VEC3",
      "bufferView": 1,
      "byteOffset": 852
    },
    {
      "name": "WBZQJ_1_2_texcoords",
      "componentType": 5126,
      "count": 329,
      "min": [
        -2.074199914932251,
        -2.074199914932251
      ],
      "max": [
        3.074199914932251,
        3.074199914932251
      ],
      "type": "VEC2",
      "bufferView": 2,
      "byteOffset": 568
    },
    {
      "name": "WBZQJ_1_2_indices",
      "componentType": 5123,
      "count": 759,
      "min": [
        0
      ],
      "max": [
        328
      ],
      "type": "SCALAR",
      "bufferView": 3,
      "byteOffset": 272
    }
  ],
  "asset": {
    "generator": "obj2gltf",
    "version": "2.0"
  },
  "buffers": [
    {
      "name": "WBZQJ",
      "byteLength": 87660,
      "uri": "data:application/octet-stream;base64,"
    }
  ],
  "bufferViews": [
    {
      "name": "bufferView_0",
      "buffer": 0,
      "byteLength": 4800,
      "byteOffset": 0,
      "byteStride": 12,
      "target": 34962
    },
    {
      "name": "bufferView_1",
      "buffer": 0,
      "byteLength": 4800,
      "byteOffset": 4800,
      "byteStride": 12,
      "target": 34962
    },
    {
      "name": "bufferView_2",
      "buffer": 0,
      "byteLength": 3200,
      "byteOffset": 9600,
      "byteStride": 8,
      "target": 34962
    },
    {
      "name": "bufferView_3",
      "buffer": 0,
      "byteLength": 1792,
      "byteOffset": 12800,
      "target": 34963
    },
    {
      "buffer": 0,
      "byteOffset": 14592,
      "byteLength": 19787
    },
    {
      "buffer": 0,
      "byteOffset": 34379,
      "byteLength": 39785
    },
    {
      "buffer": 0,
      "byteOffset": 74164,
      "byteLength": 13495
    }
  ],
  "images": [
    {
      "name": "GGSXT0011",
      "mimeType": "image/jpeg",
      "bufferView": 4
    },
    {
      "name": "GGSXT0009",
      "mimeType": "image/jpeg",
      "bufferView": 5
    },
    {
      "name": "GGSXT0008",
      "mimeType": "image/jpeg",
      "bufferView": 6
    }
  ],
  "materials": [
    {
      "name": "000003",
      "pbrMetallicRoughness": {
        "baseColorTexture": {
          "index": 0
        },
        "baseColorFactor": [
          1,
          1,
          1,
          1
        ],
        "metallicFactor": 0,
        "roughnessFactor": 0.99
      },
      "emissiveFactor": [
        0,
        0,
        0
      ],
      "alphaMode": "OPAQUE",
      "doubleSided": false
    },
    {
      "name": "000001",
      "pbrMetallicRoughness": {
        "baseColorTexture": {
          "index": 1
        },
        "baseColorFactor": [
          1,
          1,
          1,
          1
        ],
        "metallicFactor": 0,
        "roughnessFactor": 0.99
      },
      "emissiveFactor": [
        0,
        0,
        0
      ],
      "alphaMode": "OPAQUE",
      "doubleSided": false
    },
    {
      "name": "000005",
      "pbrMetallicRoughness": {
        "baseColorTexture": {
          "index": 2
        },
        "baseColorFactor": [
          1,
          1,
          1,
          1
        ],
        "metallicFactor": 0,
        "roughnessFactor": 0.99
      },
      "emissiveFactor": [
        0,
        0,
        0
      ],
      "alphaMode": "OPAQUE",
      "doubleSided": false
    }
  ],
  "meshes": [
    {
      "name": "WBZQJ_1",
      "primitives": [
        {
          "attributes": {
            "POSITION": 0,
            "NORMAL": 1,
            "TEXCOORD_0": 2
          },
          "indices": 3,
          "material": 0,
          "mode": 4
        },
        {
          "attributes": {
            "POSITION": 4,
            "NORMAL": 5,
            "TEXCOORD_0": 6
          },
          "indices": 7,
          "material": 1,
          "mode": 4
        },
        {
          "attributes": {
            "POSITION": 8,
            "NORMAL": 9,
            "TEXCOORD_0": 10
          },
          "indices": 11,
          "material": 2,
          "mode": 4
        }
      ]
    }
  ],
  "nodes": [
    {
      "name": "WBZQJ",
      "mesh": 0
    }
  ],
  "samplers": [
    {
      "magFilter": 9729,
      "minFilter": 9986,
      "wrapS": 10497,
      "wrapT": 10497
    }
  ],
  "scene": 0,
  "scenes": [
    {
      "nodes": [
        0
      ]
    }
  ],
  "textures": [
    {
      "name": "GGSXT0011",
      "sampler": 0,
      "source": 0
    },
    {
      "name": "GGSXT0009",
      "sampler": 0,
      "source": 1
    },
    {
      "name": "GGSXT0008",
      "sampler": 0,
      "source": 2
    }
  ]
}
